<svg
    xmlns="http://www.w3.org/2000/svg" width="43.032" height="29" viewBox="0 0 43.032 29">
    <defs>
        <style>.a{opacity:0.54;}</style>
    </defs>
    <g transform="translate(393.001 -104.304)">
        <g class="a" transform="translate(-393.001 104.304)">
            <path d="M75.182,30.877l-10.325-9.5a.937.937,0,0,0-1.21,0l-2.238,2.06a.744.744,0,0,0,0,1.114l7.482,6.886-7.481,6.887a.744.744,0,0,0,0,1.114l2.238,2.06a.908.908,0,0,0,1.211,0l10.324-9.5A.745.745,0,0,0,75.182,30.877Z" transform="translate(-32.4 -16.936)"/>
            <path d="M14.023,38.309l-7.48-6.887,7.482-6.886a.744.744,0,0,0,0-1.114l-2.238-2.061a.909.909,0,0,0-1.211,0L.25,30.864a.745.745,0,0,0,0,1.115l10.325,9.5a.908.908,0,0,0,1.211,0l2.238-2.061A.743.743,0,0,0,14.023,38.309Z" transform="translate(0.001 -16.924)"/>
            <path d="M45.14,12.23a.848.848,0,0,0-.509-.388l-1.815-.5a.865.865,0,0,0-1.063.545L33.328,38.764a.765.765,0,0,0,.069.614.848.848,0,0,0,.509.388l1.815.5a.9.9,0,0,0,.243.033.852.852,0,0,0,.821-.579l8.424-26.882A.763.763,0,0,0,45.14,12.23Z" transform="translate(-17.752 -11.304)"/>
        </g>
    </g>
</svg>
