<svg
    xmlns="http://www.w3.org/2000/svg" width="32.291" height="28.631" viewBox="0 0 32.291 28.631">
    <defs>
        <style>.a{fill:#686868;stroke:#686868;stroke-width:2px;}</style>
    </defs>
    <g transform="translate(1 -27.501)">
        <path class="a" d="M27.845,30.973a8.387,8.387,0,0,0-11.861.006l-.828.828-.841-.841a8.38,8.38,0,0,0-11.861-.013,8.38,8.38,0,0,0,.013,11.861l12.06,12.06a.86.86,0,0,0,1.22.006L27.832,42.841a8.4,8.4,0,0,0,.013-11.867ZM26.612,41.614,15.136,53.045,3.687,41.595a6.648,6.648,0,1,1,9.4-9.4l1.451,1.451a.864.864,0,0,0,1.227,0L17.2,32.206a6.652,6.652,0,0,1,9.408,9.408Z" transform="translate(0 0)"/>
    </g>
</svg>